<?xml version="1.0" encoding="UTF-8"?>
<svg width="443px" height="443px" viewBox="0 0 443 443" version="1.1" xmlns="http://www.w3.org/2000/svg" xmlns:xlink="http://www.w3.org/1999/xlink" style="background: #531A1A;">
    <!-- Generator: Sketch 49.3 (51167) - http://www.bohemiancoding.com/sketch -->
    <title>sheep</title>
    <desc>Created with Sketch.</desc>
    <defs>
        <polygon id="path-1" points="0.179938144 0.12 2998.96907 0.12 2998.96907 3000 0.179938144 3000"></polygon>
    </defs>
    <g id="icons" stroke="none" stroke-width="1" fill="none" fill-rule="evenodd">
        <g id="ecology_icons" transform="translate(-2400.000000, -1956.000000)">
            <g id="i0166" transform="translate(1123.000000, 681.000000)">
                <g id="Group-3">
                    <mask id="mask-2" fill="white">
                        <use xlink:href="#path-1"></use>
                    </mask>
                    <g id="Clip-2"></g>
                    <polygon id="Fill-1" fill="#FFFFFE" mask="url(#mask-2)" points="0.179938144 3000 2998.96907 3000 2998.96907 0.12 0.179938144 0.12"></polygon>
                </g>
                <path d="M1719.58763,1499.48436 C1719.58763,1621.37102 1620.81451,1720.17876 1498.97057,1720.17876 C1377.12663,1720.17876 1278.35052,1621.37102 1278.35052,1499.48436 C1278.35052,1377.5977 1377.12663,1278.78996 1498.97057,1278.78996 C1620.81451,1278.78996 1719.58763,1377.5977 1719.58763,1499.48436" id="Fill-4" fill="#E6794C"></path>
                <path d="M1532.79318,1719.14747 L1437.58243,1623.83358 L1443.51131,1593.00487 L1349.48454,1498.87624 L1392.57939,1461.66098 L1476.59948,1470.43309 L1473.20983,1454.81417 L1558.37784,1388.10588 L1603.53112,1433.30808 L1621.35083,1425.64302 L1719.58763,1523.98323 C1708.87176,1624.11937 1631.5258,1704.28363 1532.79318,1719.14747" id="Fill-5" fill="#B4623E"></path>
                <polygon id="Fill-6" fill="#F6C875" points="1472.16495 1623.23823 1484.53608 1623.23823 1484.53608 1584.0495 1472.16495 1584.0495"></polygon>
                <polygon id="Fill-7" fill="#9C4030" points="1472.16495 1623.23823 1484.53608 1623.23823 1484.53608 1617.05053 1472.16495 1617.05053"></polygon>
                <polygon id="Fill-8" fill="#F6C875" points="1438.14433 1623.23823 1450.51546 1623.23823 1450.51546 1575.79924 1438.14433 1575.79924"></polygon>
                <polygon id="Fill-10" fill="#F6C875" points="1583.50515 1623.23823 1595.87629 1623.23823 1595.87629 1539.70437 1583.50515 1539.70437"></polygon>
                <polygon id="Fill-11" fill="#9C4030" points="1583.50515 1623.23823 1595.87629 1623.23823 1595.87629 1617.05053 1583.50515 1617.05053"></polygon>
                <polygon id="Fill-12" fill="#F6C875" points="1553.60825 1623.23823 1565.97938 1623.23823 1565.97938 1539.70437 1553.60825 1539.70437"></polygon>
                <polygon id="Fill-13" fill="#9C4030" points="1553.60825 1623.23823 1565.97938 1623.23823 1565.97938 1617.05053 1553.60825 1617.05053"></polygon>
                <path d="M1637.1134,1498.36631 C1637.1134,1488.55655 1631.55343,1480.34227 1623.64473,1475.79577 C1628.6675,1469.38689 1631.78025,1461.40353 1631.78025,1452.61343 C1631.78025,1431.79732 1614.98694,1414.9219 1594.2721,1414.9219 C1589.9238,1414.9219 1585.80829,1415.8126 1581.92556,1417.18015 C1575.49415,1397.34771 1557.42649,1382.94947 1535.88198,1382.94947 C1525.99461,1382.94947 1516.82349,1386.00546 1509.13862,1391.17875 C1499.60042,1386.1884 1488.9192,1383.09942 1477.42322,1383.09942 C1439.21373,1383.09942 1408.24742,1414.22313 1408.24742,1452.61343 C1408.24742,1484.175 1429.30845,1510.51529 1457.98273,1518.99949 L1457.932,1519.54531 C1441.63708,1523.1801 1429.43081,1537.73729 1429.43081,1555.20352 C1429.43081,1575.40484 1445.7317,1591.78242 1465.83473,1591.78242 C1475.64153,1591.78242 1484.49927,1587.84173 1491.0441,1581.50182 C1496.05792,1590.36989 1505.42899,1596.42489 1516.30122,1596.42489 C1530.92486,1596.42489 1542.92222,1585.56848 1545.01728,1571.45514 C1552.31716,1576.26855 1561.01972,1579.11761 1570.40273,1579.11761 C1596.02693,1579.11761 1616.80146,1558.24151 1616.80146,1532.48903 C1616.80146,1529.48702 1616.46124,1526.56898 1615.92106,1523.72292 C1627.91244,1521.28173 1637.1134,1511.13309 1637.1134,1498.36631" id="Fill-14" fill="#FFFFFE"></path>
                <path d="M1422.68041,1455.68748 C1416.24243,1472.36962 1404.09285,1488.12061 1388.97746,1497.26586 C1373.86508,1506.40808 1359.4188,1506.74366 1349.48454,1499.96862 C1355.92553,1483.28648 1368.0721,1467.53246 1383.18749,1458.39024 C1398.29987,1449.24801 1412.74615,1448.90941 1422.68041,1455.68748" id="Fill-15" fill="#F6C875"></path>
                <path d="M1388.97746,1496.15198 C1404.09285,1486.90431 1416.24243,1470.97692 1422.68041,1454.10794 L1349.48454,1498.88501 C1359.4188,1505.73593 1373.86508,1505.39659 1388.97746,1496.15198" id="Fill-16" fill="#9C4030"></path>
                <path d="M1472.16495,1455.68748 C1478.6032,1472.36962 1490.75328,1488.12061 1505.86628,1497.26586 C1520.98229,1506.40808 1535.42917,1506.74366 1545.36082,1499.96862 C1538.92258,1483.28648 1526.7725,1467.53246 1511.65949,1458.39024 C1496.54649,1449.24801 1482.09962,1448.90941 1472.16495,1455.68748" id="Fill-17" fill="#F6C875"></path>
                <path d="M1505.86628,1496.15198 C1490.75328,1486.90431 1478.6032,1470.97692 1472.16495,1454.10794 L1545.36082,1498.88501 C1535.42917,1505.73593 1520.98229,1505.39659 1505.86628,1496.15198" id="Fill-18" fill="#9C4030"></path>
                <path d="M1509.27835,1494.84359 C1509.27835,1534.99896 1481.58362,1567.54899 1447.42268,1567.54899 C1413.25874,1567.54899 1385.56701,1534.99896 1385.56701,1494.84359 C1385.56701,1454.69123 1413.25874,1422.13819 1447.42268,1422.13819 C1481.58362,1422.13819 1509.27835,1454.69123 1509.27835,1494.84359" id="Fill-19" fill="#FADFB9"></path>
                <path d="M1509.27835,1494.84359 C1509.27835,1454.69123 1481.58663,1422.13819 1447.42268,1422.13819 L1447.42268,1567.54899 C1481.58663,1567.54899 1509.27835,1534.99896 1509.27835,1494.84359" id="Fill-20" fill="#F6C875"></path>
                <path d="M1437.1134,1509.28307 C1437.1134,1513.55468 1433.65312,1517.01616 1429.38298,1517.01616 C1425.10977,1517.01616 1421.64948,1513.55468 1421.64948,1509.28307 C1421.64948,1505.0084 1425.10977,1501.54692 1429.38298,1501.54692 C1433.65312,1501.54692 1437.1134,1505.0084 1437.1134,1509.28307" id="Fill-21" fill="#2B2F2E"></path>
                <path d="M1474.2268,1509.28307 C1474.2268,1513.55468 1470.76414,1517.01616 1466.49485,1517.01616 C1462.22555,1517.01616 1458.76289,1513.55468 1458.76289,1509.28307 C1458.76289,1505.0084 1462.22555,1501.54692 1466.49485,1501.54692 C1470.76414,1501.54692 1474.2268,1505.0084 1474.2268,1509.28307" id="Fill-22" fill="#2B2F2E"></path>
            </g>
        </g>
    </g>
</svg>