<?xml version="1.0" encoding="UTF-8"?>
<svg width="867px" height="372px" viewBox="0 0 867 372" version="1.1" xmlns="http://www.w3.org/2000/svg" xmlns:xlink="http://www.w3.org/1999/xlink">
    <!-- Generator: Sketch 49.3 (51167) - http://www.bohemiancoding.com/sketch -->
    <title>logo_lets_compost</title>
    <desc>Created with Sketch.</desc>
    <defs></defs>
    <g id="logo" stroke="none" stroke-width="1" fill="none" fill-rule="evenodd">
        <g id="logo_lets_compost" transform="translate(-40.000000, -59.000000)">
            <g id="greens" transform="translate(47.000000, 68.000000)">
                <path d="M82,359 C87.384171,357.75531 92.7175043,356.387004 98,354.907869 L98,64 L82,64 L82,359" id="Fill-183" fill="#4DA452"></path>
                <path d="M136.969774,270.147508 C137.44325,282.327984 132.349158,295.707552 122.038379,305.970364 C111.7276,316.233176 98.6731975,320.914922 87.0307677,319.852492 C86.5530645,307.672016 91.6429285,294.292448 101.957935,284.029636 C112.268715,273.766824 125.323117,269.085078 136.969774,270.147508" id="Fill-184" fill="#4DA452"></path>
                <path d="M87,316.860932 L136.969755,270 C137.443523,281.483526 132.346295,294.097533 122.029167,303.773121 C111.712039,313.448708 98.6495985,317.862572 87,316.860932" id="Fill-185" fill="#447F40"></path>
                <path d="M0.0559615556,0.258989812 C-0.817899474,21.6936832 8.55159585,45.2459082 27.525037,63.3087087 C46.5027409,81.3715093 70.5232624,89.6077721 91.9435144,87.7411126 C92.8216382,66.3021672 83.4521429,42.7499422 64.474439,24.6871416 C45.5009978,6.62434112 21.4804763,-1.60766966 0.0559615556,0.258989812" id="Fill-186" fill="#4DA452"></path>
                <path d="M158.956386,18.2055103 C159.638715,35.2587367 152.307937,53.993937 137.45874,68.3620585 C122.609543,82.73018 103.811364,89.2807982 87.0431153,87.7933971 C86.3650503,70.7401707 93.6915639,52.0092942 108.545025,37.6411727 C123.389958,23.2730512 142.188137,16.722433 158.956386,18.2055103" id="Fill-187" fill="#4DA452"></path>
                <path d="M92,87.7403485 L0.0559959356,0 C-0.818401951,21.4979633 8.55684953,45.1197087 27.541947,63.2358261 C46.5313099,81.3519436 70.5665884,89.6125179 92,87.7403485" id="Fill-188" fill="#447F40"></path>
                <path d="M137.445833,68.3042345 C152.303927,53.8938059 159.639098,35.1034397 158.956359,18 L87,87.7927888 C103.778296,89.2845695 122.587739,82.714663 137.445833,68.3042345" id="Fill-189" fill="#447F40"></path>
            </g>
            <text id="let’s-compost" font-family="AvenirNext-DemiBold, Avenir Next" font-size="170" font-weight="500" line-spacing="125" fill="#4A4A4A">
                <tspan x="214" y="291">let’s </tspan>
                <tspan x="214" y="416">compost</tspan>
            </text>
        </g>
    </g>
</svg>